<svg width="23" height="22" viewBox="0 0 23 22" fill="none" xmlns="http://www.w3.org/2000/svg">
<path d="M6.17808 15.2901C5.88515 15.5829 5.88509 16.0578 6.17795 16.3507C6.4708 16.6436 6.94568 16.6437 7.23861 16.3508L6.17808 15.2901ZM12.0303 11.5604C12.3232 11.2675 12.3233 10.7926 12.0304 10.4997C11.7375 10.2068 11.2627 10.2067 10.9697 10.4996L12.0303 11.5604ZM10.9697 10.4996C10.6768 10.7924 10.6768 11.2673 10.9696 11.5602C11.2625 11.8532 11.7373 11.8532 12.0303 11.5604L10.9697 10.4996ZM16.8219 6.7699C17.1149 6.47704 17.1149 6.00217 16.8221 5.70924C16.5292 5.41631 16.0543 5.41625 15.7614 5.70911L16.8219 6.7699ZM12.0303 10.4996C11.7373 10.2067 11.2625 10.2068 10.9696 10.4997C10.6768 10.7926 10.6768 11.2675 10.9698 11.5604L12.0303 10.4996ZM15.7614 16.3508C16.0543 16.6437 16.5292 16.6436 16.8221 16.3507C17.1149 16.0578 17.1149 15.5829 16.8219 15.2901L15.7614 16.3508ZM10.9697 11.5604C11.2627 11.8532 11.7375 11.8532 12.0304 11.5602C12.3233 11.2673 12.3232 10.7924 12.0303 10.4996L10.9697 11.5604ZM7.23861 5.70911C6.94568 5.41625 6.4708 5.41631 6.17795 5.70924C5.88509 6.00217 5.88515 6.47704 6.17808 6.7699L7.23861 5.70911ZM7.23861 16.3508L12.0303 11.5604L10.9697 10.4996L6.17808 15.2901L7.23861 16.3508ZM12.0303 11.5604L16.8219 6.7699L15.7614 5.70911L10.9697 10.4996L12.0303 11.5604ZM10.9698 11.5604L15.7614 16.3508L16.8219 15.2901L12.0303 10.4996L10.9698 11.5604ZM12.0303 10.4996L7.23861 5.70911L6.17808 6.7699L10.9697 11.5604L12.0303 10.4996Z" fill="white"/>
</svg>
