<svg width="27" height="26" viewBox="0 0 27 26" fill="none" xmlns="http://www.w3.org/2000/svg">
<rect x="1" y="1.37662" width="25.1343" height="23" rx="5" stroke="#63192F" stroke-width="1.5" stroke-linejoin="bevel"/>
<path d="M7.80057 18.0246C7.50764 18.3174 7.50758 18.7923 7.80044 19.0852C8.09329 19.3781 8.56817 19.3782 8.8611 19.0853L7.80057 18.0246ZM14.0974 13.8503C14.3903 13.5575 14.3904 13.0826 14.0975 12.7897C13.8047 12.4968 13.3298 12.4967 13.0369 12.7896L14.0974 13.8503ZM13.0369 12.7895C12.7439 13.0824 12.7439 13.5573 13.0367 13.8502C13.3296 14.1431 13.8045 14.1432 14.0974 13.8503L13.0369 12.7895ZM19.3337 8.61534C19.6266 8.32249 19.6267 7.84761 19.3338 7.55468C19.041 7.26175 18.5661 7.26169 18.2732 7.55455L19.3337 8.61534ZM14.0974 12.7896C13.8045 12.4967 13.3296 12.4968 13.0367 12.7897C12.7439 13.0826 12.744 13.5575 13.0369 13.8503L14.0974 12.7896ZM18.2732 19.0853C18.5661 19.3782 19.041 19.3781 19.3339 19.0852C19.6267 18.7923 19.6266 18.3174 19.3337 18.0246L18.2732 19.0853ZM13.0369 13.8503C13.3298 14.1432 13.8047 14.1431 14.0975 13.8502C14.3904 13.5573 14.3903 13.0824 14.0974 12.7895L13.0369 13.8503ZM8.8611 7.55455C8.56817 7.26169 8.09329 7.26175 7.80044 7.55468C7.50758 7.84761 7.50764 8.32249 7.80057 8.61534L8.8611 7.55455ZM8.8611 19.0853L14.0974 13.8503L13.0369 12.7896L7.80057 18.0246L8.8611 19.0853ZM14.0974 13.8503L19.3337 8.61534L18.2732 7.55455L13.0369 12.7895L14.0974 13.8503ZM13.0369 13.8503L18.2732 19.0853L19.3337 18.0246L14.0974 12.7896L13.0369 13.8503ZM14.0974 12.7895L8.8611 7.55455L7.80057 8.61534L13.0369 13.8503L14.0974 12.7895Z" fill="#380E16"/>
</svg>
